/* XPM */
static char *_d22d305399a4199b21d825bc72864a5GGZa4DI9Qq7aVehf[] = {
/* columns rows colors chars-per-pixel */
"64 64 132 2 ",
"   c #351A12",
".  c #3C1E16",
"X  c #3F2017",
"o  c #44231A",
"O  c #4A261C",
"+  c #4E281F",
"@  c #502A1F",
"#  c #4F2A20",
"$  c #542C22",
"%  c #592F24",
"&  c #5D3126",
"*  c #613327",
"=  c #633529",
"-  c #68372A",
";  c #67382B",
":  c #6B3A2D",
">  c #713C2E",
",  c #7B3E2F",
"<  c #723E30",
"1  c #7E3F30",
"2  c #55433D",
"3  c #5C433C",
"4  c #62453D",
"5  c #764032",
"6  c #7C4334",
"7  c #5B4640",
"8  c #5E4842",
"9  c #654A43",
"0  c #6B4D44",
"q  c #714D45",
"w  c #6D524A",
"e  c #745048",
"r  c #7B544B",
"t  c #7D584E",
"y  c #6E5A54",
"u  c #725B55",
"i  c #7B5950",
"p  c #795F59",
"a  c #75625B",
"s  c #7C625C",
"d  c #756661",
"f  c #776863",
"g  c #7D6B65",
"h  c #7E6E69",
"j  c #814636",
"k  c #8A4636",
"l  c #844837",
"z  c #8D4837",
"x  c #814738",
"c  c #844939",
"v  c #8D4D3C",
"b  c #914F3D",
"n  c #9A4F3D",
"m  c #93503E",
"M  c #9E513E",
"N  c #A0523F",
"B  c #80564C",
"V  c #83584E",
"C  c #975240",
"Z  c #9D5643",
"A  c #835C52",
"S  c #A35643",
"D  c #A85743",
"F  c #A25845",
"G  c #AC5945",
"H  c #B15C47",
"J  c #B35D48",
"K  c #B45D48",
"L  c #B45E48",
"P  c #B55E49",
"I  c #82665F",
"U  c #836761",
"Y  c #846862",
"T  c #856862",
"R  c #856962",
"E  c #866963",
"W  c #866A63",
"Q  c #876A64",
"!  c #876B64",
"~  c #886B64",
"^  c #886B65",
"/  c #886C65",
"(  c #896C65",
")  c #8A6D66",
"_  c #85736D",
"`  c #887069",
"'  c #8B726B",
"]  c #8D736B",
"[  c #8E756D",
"{  c #91766E",
"}  c #90776F",
"|  c #91776F",
" . c #92786F",
".. c #8A7670",
"X. c #8C7973",
"o. c #927971",
"O. c #957B72",
"+. c #967B73",
"@. c #967C73",
"#. c #977C74",
"$. c #987D75",
"%. c #997E75",
"&. c #997E76",
"*. c #9A7F77",
"=. c #9B7F77",
"-. c #917F79",
";. c #9B8077",
":. c #94827B",
">. c #96837D",
",. c #97847E",
"<. c #9B8078",
"1. c #9D8279",
"2. c #9E8279",
"3. c #9E837A",
"4. c #9F837A",
"5. c #9F847B",
"6. c #98857F",
"7. c #A0847B",
"8. c #A1847C",
"9. c #A1857C",
"0. c #9A8680",
"q. c #9B8781",
"w. c #9D8983",
"e. c #9F8B85",
"r. c #A08C85",
"t. c #A18D86",
"y. c #A38E87",
"u. c #A48F88",
"i. c #A49089",
"p. c #A5908A",
"a. c #A7928B",
"s. c #A8938C",
/* pixels */
"c j j 6 x c c c > : - & I W W U * 1 k z n n n n n z n z 6 6 1 6 6 6 6 j j j j 6 5 : - & + 7.7.7.;., k z b j j j j 5 6 6 5 6 6 6 ",
"Z Z C C Z Z C C j j 6 : W W W W , n M G G G G G G G G G b C C C C C C C C C C b m l j 5 & 7.;.;.@.z N S F C m C M m C C C C M m ",
"F F F F F F F Z z c c 5 W W U W j S G H K K K K K K K K C F F F F F S F F F S F m b c 6 - ;.;.$.| n D G H Z F Z F F S Z Z S F F ",
"F F F F F F F Z v v v 6 W W W W j Z D G G K K K K K K K Z F F F F F F F F F F F Z v v c - ;.;.@.( n S G H Z F F F F Z F F F F F ",
"v v v v v v v v 6 c x 5 2.7.2.$.# % & = 6 5 5 6 c c c c c v c v v c v v v v v v v c 6 5 = ;.#.O.u & & ; : v c c v c v c z c v v ",
"b b v b v v C v c c x 5 @.2.$.| # = : > c c c c b b v C v C v v v C v v b v b b v c c 6 ; =.#.X.y & ; > 5 v C v b v C v C v v v ",
"v b v b v C v v c c x 5 @.2.$.| # & : < c c c c C b b v b C v C b b b b v b b b v c c 6 ; ;.$.o.y = : > > C c v b b C v C v C v ",
"v v v v v v v v 6 c j 5 @.2.;.[ # = > < c c j l b b b b b v v v v v v v v v v v v c 6 5 = ;.#.[ y & : 5 5 C C v C v v v c v v v ",
": : > : = * = * ; ; = % 0.s.y.>.. % = - : = = : c c c c x c c c 5 : : 5 : = = = = = = & + ;.#.o.y % = ; : c c c 6 : : : 5 : : : ",
"< < < > ; ; : : : ; = % >.u.e.-.o & = ; : : : : c c c c c c c c 5 5 ; 5 > ; ; : ; : ; & # <.;.[ y $ * ; : c c c 6 5 : 5 5 : 5 5 ",
"< < > > ; ; : ; ; ; = % ,.i.e.-.. $ = = = : = : c c c c c j c x 5 5 5 : > : ; : ; ; = & O <.#.O.y $ & ; : c c 6 6 5 : 5 < > 4 < ",
": : : : = * * = & & & # 0.u.e.>.  + & & * * * * 6 6 5 6 6 5 6 5 : ; ; ; - = * = * & % $ X 2.2.#.a O $ & = 5 5 6 6 ; ; ; ; : : ; ",
"~ ~ ~ ~ ~ ~ ~ ( 2.2.$.2.i.u.y.0.] +.$.+.s W ~ W ` ` ~ ~ ( ( W W ` ( / / Q <.<.;.<.<.2.2.2.s.u.e.:.@.$.$.$.Q Q W W ~ ~ W W ~ ~ ~ ",
"~ Q Q Q ~ ~ ( ~ 9.9.9.5.i.y.e.w.[ $.=.2.p W Q W ( Q Q Q W W W W Q Q Q / Q 2.5.5.2.9.2.9.2.i.y.e.,.$.;.;.| U W W W W W W ~ Q ( Q ",
"U g Q / W W ~ ~ 2.2.=.2.y.w.0.0.] O.O.O.u U W W U W U W W W W W U Q W Q U 2.<.<.2.$.<.$.<.e.w.0.:.O.@.O.[ U I U T W W W U W W W ",
"Q Q / Q W W W W $.$.O.O.6.>.>.-.( ] | | u U I W U U U W W W W W / U Q W U $.#.#.O.#.O.O.O.,.:.-.X.[ [ [ ' s U U U U I U U U W T ",
"* 1 k k z z n z 6 5 5 6 > > > > & * * = 6 j j 6 : ; * &  .9.7.9.r , k z c 5 5 5 , 5 5 5 < : > > : = * * ; 6 6 j 6 = * & o W W T ",
", n S D G G G G C C C m M b C b 6 j j j C C C C 6 c 6 :  .2.;.;.i z n S S C C C m m m C C C m C b 6 j j z m C C m j 6 > * W U W ",
"k Z G H K K K K Z Z F Z Z F Z Z c v v v F F S F c c c 6 | ;.;.$.A m S G G Z Z F F F Z Z Z F Z Z C v v v v F F F Z z c 6 = W W W ",
"z S G G K K K K F F F F F F F F v v v b G S F F c v v 6 ] ;.$. .A N D G G F Z Z Z F F F Z F F S Z v v v m F F F Z v v l > W W U ",
"# % & & l l l j c c v v v c c v v b b b 6 6 6 6 = : : & ( $.$.| 3 $ & * ; 5 5 6 6 5 6 6 6 < 6 5 6 l c c 6 6 6 5 5 ; ; = % 7.7.7.",
"# - < > b b v b v b v v v b v v b b b b c c c c : 5 : = ( =.$.| 4 * : : 5 6 c c c c c c c c c c c c c c c c c c c < < : & ;.7.#.",
"$ ; : < v C b b m v m v m v b b b v b v l B c c > 5 < : ` <.$.| 3 = : < 5 c c c c c c c c c B c c c c c c B k c c < < : & ;.=.O.",
"$ ; > > C b C b b b m m b v v v v b b b j c c c : 5 : ; ( 2.2...9 = : < 5 c 6 c c c c c c z z c c c c v c c c c 6 5 < : & ;.=.O.",
"# ; > < c c c c C v C v : : : : : : : ; : < : < = - = * X.s.u.0.8 $ = ; = * = * = : : : < c c c c c c c c > > > > ; ; & $ $.2.O.",
"# ; < < c c c c v C b v : < < < < < < < < < < < : : = * ..u.r.0.3 & = - : : : : : < 5 5 5 c c c c v c c c < < < 5 : : & $ 6.2.O.",
"# = : > c l l l m v v v : < < > < < < < < < < > ; ; = % ..y.r.>.2 $ = = - - - : : < < > 5 c c c c c c c 6 < < > > : = & + 2.2.O.",
"o & & : 5 6 6 j c c c c - : : > : : : : : > : : = * % $ X.u.y.0.2 + & & = = = = = : : > > 6 6 6 6 6 6 6 5 : : > : & & % o 7.2.#.",
"' ..| | I W W ~ ( W ~ ~ I I I I U I U I O. .| | | | | | r.u.y.0.Q ] ] [ [ | [ | | I I I I W W T ` W W W W I I I I | | | O.s.i.u.",
"+.=.<.=.I W W W W W U W W W W ~ W ( ~ ( 7.9.7.7.7.7.7.7.u.u.r.r.X.$.2.2.2.2.2.2.| W W W ~ ~ ~ ~ Q Q W W W ( ( ( ( 7.9.9.2.u.y.y.",
"O.#.$.+.p T T U W W W T W W W W W W W ~ 7.7.;.7.=.7.=.2.y.r.q.q.X.O.$.<.;.<.$.$.] T T T W W T ~ W T W T W W W W Q 7.2.2.2.y.e.w.",
"..+.+.o.p I U W W U T W W W ~ W W W W ~ =.=.=.=.=.$.$.$.r.6.6.$._ [ | +.O.#.$.+.~ I U W W ~ ~ W W ~ W W W W W Q Q $.$.$.+.0.6.6.",
"0 9 0 0 e e e e 4 4 4 3 | | ] [ 4 q e r A t t t t t r r w 9 9 9 3 3 3 3 4 0 0 0 9 4 3 4 3 [ ] | ) 0 q r r B B B B q 0 0 0 9 9 9 ",
"m C C C C C C C j 6 5 : #.2.2.<.> z N S D D D F S D S S v b v b c 5 6 6 l m m m v 6 5 > % 2.7.;.$.z N N S D G D D m m m C m v C ",
"Z Z F F Z F F Z k v c 5 $.<.<.#.1 N D H H H H L K H H H C F Z Z v v z v v F F Z C v c 6 = ;.;.;.| n D K K L K K L Z F S Z F Z Z ",
"F F F F F F F Z v v z 6 $.2.#.+.k N G H K K L K K K L L Z F F F m v v b m F F F C v z c ; ;.;.$.[ n D H K P K K L F F F F F F F ",
"Z C Z Z C Z Z Z c v c 6 #.#.$.O., n n N F D S D D D D D C C Z Z C b b b v C Z Z C c c 5 ; <.#.O.I z C Z S D D D F C Z C Z Z C Z ",
"b b b b v C C c c c l 5 #.<.$.o.+ , < j v v b v v v v v v v v b v v b C b m m v c : : : $ <.<.#.s : 6 c j v v v b C v C C v C v ",
"b v b b b b b C c c 6 6 #.#.#.[ * < c c b b v b v b v b b b b b b v b b b m b v c 5 < : & =.<.o.s > 6 6 c b b b b b b v b b v b ",
"v v C b v b v b 6 c 6 5 #.<.#.[ % < j x v b v v b b b b b b b v v C v b v v b v z < < : $ <.<.O.a 5 6 c c b b b b b b b b b b b ",
"c c c c c c c c 6 6 6 < X.#.#.[ $ < < 6 c c c c C v v v v v b z c c c c c c z c c > : : $ 5.2.#.a : 5 6 c v v v v v v v v b v v ",
"> 5 ; 5 5 5 > 5 - = ; % | 2.+.[ O = : < < < < 6 c c c c c c l B 5 5 > 5 < < < < < : ; & # y.u.0.d & : > < c c c c c t c c c c c ",
": 5 5 5 5 5 5 : = : = & O.2.+.] o & : < > < < < c c l l c c c 6 5 5 5 : 5 < < < < ; ; & O y.u.,.a % ; > < c c c c c c c c c j c ",
": : ; : ; : : : = & & # +.2.=.+.. % - - : : : : x 6 6 6 6 6 6 6 5 ; 5 ; : : : : : = & % o y.y.0.d $ = ; : 6 6 < 6 6 6 6 6 6 6 6 ",
"& & & & & & & & $ # O o 2.9.2.+.  O $ % % % % = : - : : : : = : & % & & & & & & % $ # o   i.y.q._ o # $ % ; : : : : : ; : : - : ",
"U ( Q ( w.9.5.5.5.5.5.9.u.u.u.e.| =.$.=.a ~ ~ E W W ~ W W W W W h Q / / ( W ( / ~ 5.9.9.5.u.e.w.0.-.;.2.O.W W W W W W W W W W W ",
"Q U U W 2.2.<.<.2.2.=.2.u.y.e.0.| +.#.+.u I Q T W W W W W I T W W W W W U W W Q Q 2.2.2.2.e.e.e.:.O.#.#.[ I W I I W W W T W T W ",
"U U U W ;.$.$.$.#.+.+.+.w.0.0.>.' | | | u g U U U U I I W T U W W U U W W W W T U =.#.#.#.0.0.>.-.[ O.O.` I I T W I U I W W W T ",
"s s s s ..` ` ( ` ` ` ` _ h h g u a a s a s W W s s s s I U U U W W ( W W W W ` s [ ` ` h h h h f a a s h s W T s s s s W ( ( Q ",
"$ : 5 5 b m v v v v b b v v v v 5 6 6 6 m m m C 6 5 5 : W I W W r z m S Z m b C m m v m b v v C z 5 6 6 6 C m m b 6 5 : & 2.2.;.",
"* 5 c k Z F Z Z Z Z Z Z Z Z Z Z 6 v c v F Z F Z l l l 5 W U U W V n S G G Z Z Z Z Z Z Z Z Z Z Z C c v v C Z Z Z Z c c 6 ; ;.;.@.",
"= 6 c v F F F F F F G Z F F Z Z v v b v G F F F c v v 6 W W W W V N G L G S F F F F F F F Z Z Z Z v b v C F F F Z v v j : ;.;.O.",
"- 5 l c Z Z Z Z Z Z Z Z Z Z Z Z v v m b F F F Z c v v c ~ ~ ( W V n S D G Z Z Z F Z Z Z Z Z Z Z Z b v b C Z Z Z C c l l : ;.;.| ",
"+ - : 5 b m v v v v C v b b b b b b v v m m v v l l 6 6 ] 2.2.@.0 < 6 j 6 v b b v b b b v v C v b b v C b b v v v 5 : : & ;.;.| ",
"$ - 5 : m b b b C v b b b b b b b b b b b b b b l c c 5 ] ;.;.O.0 < 6 l c C v C b v b b v v b m b b b b C b b v v 5 : : & ;.;.[ ",
"+ ; : 5 b b b b B v b v b v b b v b v v b b b b l c 6 6 ] 2.;.@.0 < 6 l c v v v b b v b v C b v b b v b v v C v c 5 5 : & 2.;. .",
"# = : 5 v c c c v c l v l l v l c v c c C c r z 6 6 6 5 ( 9.;.@.9 > 5 6 x z v c c c v c c v 6 c v 6 v 6 c c c c v : 5 : & 2.2.;.",
"O & = : 5 5 5 5 5 5 : 5 5 5 5 5 > < 5 > : 5 : 5 : : - & X.i.y.,.7 % = : : < < < : 5 5 5 5 5 5 5 5 5 5 5 5 5 5 5 5 : ; = $ y.y.,.",
"o & = : 5 : 5 5 5 5 5 5 5 5 5 : 5 < < < 5 5 5 5 ; ; * & _ i.y.:.7 $ = = : > < < 5 5 5 5 : 5 5 5 5 5 5 5 5 5 5 5 5 ; ; & + y.y.,.",
"X $ & = : : : : ; : : : ; ; 5 : : > > : : : : : = = & & X.i.e.,.2 # & * ; > : > : : : 5 : : : : 4 ; : ; 5 : : 5 ; = & & O i.y.w.",
"  o + $ & & = * & = = & & & & = = & = & = & = & % $ $ o -.i.y.w.2 O @ $ $ & & & & * & & & = & = & = = & * = & = & & $ O X i.y.w.",
"o.<.;.<.s W / / Q / / / ( ( / ` / / W / ) ( ( ( 2.9.9.9.i.u.y.q.X.$.2.2.5.5.5.5.[ W ( ( ( / ( ~ I ( ) ( ( 5.7.7.5.s.s.i.i.i.e.w.",
"} #.#.#.s U Q U Q Q W Q ( U W / / W W Q Q ( Q / 2.2.7.2.y.y.w.w.X.$.$.2.;.2.<.<.[ W U / Q / ( ~ ( I ( ( ! 5.2.5.2.i.y.i.y.e.w.w.",
"} @.@.@.s U U Q U U U W U W U W W Q U Q W W Q ( $.2.;.;.w.0.w.6...O.#.$.$.:.#.#.` I I U / Q ( I / / ( I W ;.;.<.<.e.e.w.,.w.,.,."
};
