/* XPM */
static char *efe6a16489f04edbd586e5b3876873fdpvaSOJ8KJChYwWXJ[] = {
/* columns rows colors chars-per-pixel */
"64 64 166 2 ",
"   c #190000",
".  c #2D1808",
"X  c #371D06",
"o  c #351D0B",
"O  c #3D230E",
"+  c #452200",
"@  c #4C2600",
"#  c #472900",
"$  c #4B2C00",
"%  c #40250F",
"&  c #542A02",
"*  c #432610",
"=  c #452911",
"-  c #4C2D14",
";  c #532D15",
":  c #4D3215",
">  c #48351A",
",  c #533116",
"<  c #583317",
"1  c #553518",
"2  c #5C3619",
"3  c #56391A",
"4  c #5E3A1B",
"5  c #653D1D",
"6  c #693F1F",
"7  c #553F20",
"8  c #5F401E",
"9  c #63421F",
"0  c #68401F",
"q  c #564121",
"w  c #5D4624",
"e  c #664420",
"r  c #6A4521",
"t  c #624A26",
"y  c #6C4823",
"u  c #654C28",
"i  c #694F2A",
"p  c #744422",
"a  c #784724",
"s  c #724A25",
"d  c #7C4925",
"f  c #774B2C",
"g  c #6D522C",
"h  c #73552D",
"j  c #7C542E",
"k  c #74582F",
"l  c #7F592F",
"z  c #765A30",
"x  c #7C5E33",
"c  c #7F6034",
"v  c #84532F",
"b  c #855531",
"n  c #8D5731",
"m  c #8C5A37",
"M  c #8F5D38",
"N  c #915D39",
"B  c #806135",
"V  c #896037",
"C  c #8B6B36",
"Z  c #95623B",
"A  c #9D663E",
"S  c #94683C",
"D  c #94723A",
"F  c #9D763D",
"G  c #977A3E",
"H  c #A1673E",
"J  c #9B7E42",
"K  c #A06740",
"L  c #A46A41",
"P  c #A96E44",
"I  c #AE7146",
"U  c #B17347",
"Y  c #BA7747",
"T  c #B47649",
"R  c #B7784A",
"E  c #BB7A4C",
"W  c #C17E4F",
"Q  c #9F8345",
"!  c #A08345",
"~  c #A28C48",
"^  c #AD8B4B",
"/  c #AD954D",
"(  c #B49C51",
")  c #BCA254",
"_  c #8F8471",
"`  c #9C8D76",
"'  c #A08F76",
"]  c #A1927A",
"[  c #C3804F",
"{  c #C58150",
"}  c #CA8452",
"|  c #C1A757",
" . c #C1A857",
".. c #C4AA59",
"X. c #C9AE5B",
"o. c #CDB25D",
"O. c #D1B55F",
"+. c #D3B760",
"@. c #D6B962",
"#. c #DBBE64",
"$. c #DEC165",
"%. c #DFC269",
"&. c #E1C367",
"*. c #E5C669",
"=. c #E7C86A",
"-. c #EBCC6C",
";. c #EFD06E",
":. c #F2D16F",
">. c #F8D76F",
",. c #ECCD70",
"<. c #F5D471",
"1. c #F5D571",
"2. c #F8D772",
"3. c #F9D873",
"4. c #B0A696",
"5. c #B6AB9B",
"6. c #B8AD9C",
"7. c #BFB3A3",
"8. c gray72",
"9. c #D4A88A",
"0. c #C3B99E",
"q. c #C2B6A5",
"w. c #C6BAA9",
"e. c #CABEAC",
"r. c #E5CC8A",
"t. c #F5DB94",
"y. c #F9DE97",
"u. c #CDC1AF",
"i. c #D4CAAC",
"p. c #D2C5B3",
"a. c #D5C8B6",
"s. c #D8CCB4",
"d. c #D9CCB9",
"f. c #DACDBA",
"g. c #DBD0B2",
"h. c #DED1BE",
"j. c #DFD1BE",
"k. c #E0D3BF",
"l. c #C4C4C4",
"z. c #D9D8D7",
"x. c #DDDDDD",
"c. c #E3D6C2",
"v. c #E7D9C5",
"b. c #E9DBC7",
"n. c #EBDDC8",
"m. c #EDDFCA",
"M. c #EEE0CC",
"N. c #EFE1CC",
"B. c #F1E2CD",
"V. c #F1E3CE",
"C. c #F3E4CF",
"Z. c #F4E6D1",
"A. c #F5E6D1",
"S. c #F7E8D3",
"D. c #F9EAD5",
"F. c #FAEBD5",
"G. c #FDEED9",
"H. c #E4E4E4",
"J. c #EDEDED",
"K. c #EFEFF0",
"L. c #F4F4F4",
"P. c #F6F6F6",
"I. c #F8F7F5",
"U. c #F9F9F9",
"Y. c #FBFBFB",
"T. c #FDFDFD",
/* pixels */
"3.3.2.<.W } } { % < 2 5 ; ; , 1 5 5 0 5 [ { } } -.-.-.&.Z I I U T W [ { T 5 5 9 e d d d 5 Y.U.L.P.D.Z.Z.n.W { { W a d d d m c c ",
"<.2.<.:.E W W W ; 6 p p 5 5 5 5 0 5 5 5 [ [ [ [ :.-.-.=.A E E E E E W E U 5 0 0 6 d d p 2 T.T.T.T.D.D.D.c.W { W E p d d d b c c ",
"-.<.<.-.E E W E ; 6 p p 5 5 6 5 0 0 9 9 [ [ [ [ =.-.=.&.A E E E E E W E P 5 0 5 6 a p p < Y.Y.T.L.A.S.A.j.E W W T 6 a d d c c z ",
"-.<.<.<.E W W W - 5 6 p 5 6 6 e 6 6 9 9 W Y Y E &.$.#.#.A E W E E E E E I 5 5 6 6 p 6 5 - I.I.L.P.A.A.N.c.E W W R 2 6 e a c c z ",
"Z.D.D.Z.-.<.:.-.T { { E 1 5 6 e e s y y 9 4 9 & 5 5 < ; T E E E f = : , 5 x B x u } } } W Z.B.B.B.B.A.N.n.;.<.-.*.{ { { E 9 5 5 ",
"n.Z.B.B.=.-.-.=.U E E E , 5 6 6 s y y y 9 9 9 0 p p p 6 R W E E v , 5 5 5 x B k t W } W W C.B.B.N.B.N.N.b.-.-.=.$.E E E R 4 5 5 ",
"b.m.n.b.&.=.=.&.P R E R ; 5 5 e y y y y y y p p d d a p Y E E E b 5 5 5 9 B c k t W W W E M.n.b.n.n.n.n.v.=.=.*.@.T E R I 4 5 4 ",
"c.j.d.d.@.#.#.@.L T T T , 5 6 6 y y y y y y p 6 d d d a E E R T v 5 6 0 0 B B x t E E E R d.s.d.c.v.n.v.c.#.#.#.o.I T T T 4 5 5 ",
"6 5 2 ; L L L K O = - , x c c B a d d a v 6 v a 6 e e 5 e 3 3 3 9 y y y y c c c k 3 1 1 1 : : = o #.$.#.o.K K K A O - - < x c c ",
"a p p 5 E T T U = 1 5 5 x x c c b d v a v v d d 6 6 6 6 r r r r y y y y y c c c c 9 9 9 9 5 5 , = =.=.&.@.T T T P 1 4 5 5 B c c ",
"d a a 6 E E E T - 4 5 5 x x x c a a a a 6 v a d 5 e 6 0 y y r r y y y y y c c B c y y e 0 9 0 5 - =.*.%.+.T T R I 4 5 6 e B B B ",
"d d d p E T T T , 5 5 5 x z k z p p p p 6 a 6 a 5 6 9 9 y y y y y y y y y k z z k 8 8 8 9 5 9 9 - $.#.@.o.U T T I 4 5 9 0 B B B ",
"m c c c 2 , , , x x x z } } } } 3.<.<.<.W } } W 5 d d d 6 6 e e 9 r 9 y $ U.Y.L.K.:.:.:.%.9 y 9 r : , - , : , - < x B B B B B B ",
"c c c c 5 5 8 5 x x x k } } } } 3.3.2.<.T W W W < p a v 6 e 6 6 0 y y 9 # T.U.T.K.:.:.-.o.9 y 0 y 5 5 5 5 5 5 5 5 c B B c B B B ",
"c B c B 6 6 5 e x x z h } } } } <.<.>.;.T W W W < 6 p d 6 6 e 6 0 y y 5 # Y.U.L.J.;.;.=...8 9 9 r 9 5 9 6 5 6 6 5 B x x B x x c ",
"c c B B 6 e 5 5 x z h u } } } } 3.<.<.;.Y W W W ; 5 6 p 5 6 6 e 9 9 9 3 X U.L.U.J.-.;.-.o.1 8 8 r 5 6 6 6 9 6 e 5 z k z z z z z ",
"7 6 6 6 y y y r } } } } T.T.U.U.G.G.G.D.Z.S.S.C.P W } W ; 5 5 5 D 2.<.<.3.S.Z.Z.Z.S.Z.Z.d.W [ { W r y y y c c c k D.D.S.Z.:.:.;.",
", 6 6 e y y r e { } } } U.T.T.T.S.D.S.S.S.S.Z.B.H W W W - 5 5 4 S 2.2.>.>.S.Z.B.M.M.C.n.p.{ E E T 9 y y y c c z u G.G.F.S.:.:.-.",
", 5 5 5 y y r w } { } } L.U.U.Y.C.S.S.Z.Z.Z.B.n.A E W E - 4 5 4 C :.>.:.:.Z.Z.B.M.M.M.n.p.R E [ T 9 r y y c z k w G.F.S.C.-.;.=.",
"2 5 e 6 y y r 9 { } } } L.U.L.L.C.C.C.C.C.B.B.n.A W W W - 4 5 4 C :.;.-.-.B.M.m.n.v.c.c.e.R E E T 9 y y y z k g q F.D.S.M.-.-.&.",
", 5 5 0 d d d p 3.3.3.3.S.B.B.M.M.Z.Z.B.&.&.&.&.=.;.<.-.2 p p p v P P H U &.$.#...N N A m ; < < 5 z c c h F.D.F.G.T.U.I.K.=.=.%.",
"< 5 0 0 d d d p -.:.:.:.C.B.B.B.B.M.B.B.=.-.-.-.-.-.-.=.4 p p p n W Y W E =.*.*.o.U T Y P 5 p p a c c c u F.F.F.F.L.L.K.J.&.&.$.",
"< 5 0 0 d d d p -.-.-.-.B.n.B.M.m.M.B.b.&.-.=.-.-.=.=.&.2 p p p n E W E E *.*.$.X.T E T I y a d d B B z u Z.Z.Z.C.K.K.J.H.&.&.#.",
"< 5 6 0 d d a p &.&.$.&.c.c.k.c.b.n.n.n.&.=.=.*.&.&.&.#.4 p d p n E T E T #.@.@.X.U T T I p d d d B c z u M.n.n.n.J.J.H.z.O.O.O.",
"9 y y y 0 0 5 5 , = = O m m m M O.@.#.@.&.=.=.*.N N A N : 5 5 5 6 2 5 < 5 ; - - : : : : 3 c c B x v d p 5 N N N Z O.o.../ O % = ",
"y y y y 0 0 e 6 5 5 4 , T T T T =.=.=.=.*.=.=.%.H T T T - 4 5 5 r a p p 6 5 5 5 4 0 9 e r c B B b d d a 5 E R E E &.%.#. ., 2 4 ",
"9 y y y 0 0 0 9 6 0 5 2 E E E E =.=.=.=.=.=.*.$.K T R T - 5 5 5 p d d a d 5 5 5 5 r 0 y t c c B c d d a 5 E Y E E *.&.$...: 4 5 ",
"9 9 8 9 6 9 0 9 9 5 5 4 E E T T &.&.#.#.&.&.$.#.A U T T - 5 6 e r d v a d 6 6 5 9 9 e 0 r c c c B d d a 5 E E E E $.$.#.X.: 2 2 ",
"-.*.*.%.k c c c y y y y , : - - 5 2 2 ; m N M M . O = - e r y y 0 0 0 0 6 c x l k =.=.&.&.d d d d B B b k 2 2 2 4 : : % . [ [ W ",
"3.2.<.-.u c c c y y 0 y 5 5 5 5 p p 6 5 R R T U * , 4 5 r y y y y 0 0 0 6 b c k w 3.<.<.O.p d d d B c c c a a p p 4 4 , % { { } ",
"2.<.:.-.w z c c y y y y 6 0 5 0 a a a r W E E E = 2 5 5 y y y y 0 0 0 0 9 c c k q 3.:.;.X.0 s d d B c B B d d a a 5 5 < - { { } ",
"2.<.:.-.8 i k z r y y y 0 0 0 0 d d d p W E R Y - 5 5 6 y y y y s 0 0 5 9 z k i 1 2.>.;.O.6 p s d c B B B d d d p 5 4 < O } } } ",
"y.y.t.t.J ! ! ! r s p s i s s s a p p p b v f v 5 9 r 9 s k y h s p p 0 5 ' ' ' ] y.y.t.r.F F F F h j h k d a a y G D D D 9.9.9.",
"S.S.Z.Z.-.:.:.=.5 p d d B B c B 6 e 6 5 a p p p 0 y y y B B B c l d a p & T.T.T.T.D.S.Z.m.:.:.-...5 6 6 0 y y 9 3 >.>.3.3.T.U.U.",
"Z.Z.Z.B.=.-.-.&.2 p d d B B B B 6 5 5 6 a a a a y y y y B B c c l d s p @ U.U.U.L.Z.Z.Z.b.-.-.&.) 4 5 e 0 y y 9 4 :.:.:.<.L.L.U.",
"Z.M.B.n.*.=.*.&.; 6 s s b B B x 5 5 2 5 p p p p 9 9 9 e c B c c l p p 5 + U.I.I.L.Z.B.B.b.=.*.#.) 5 5 6 0 y y y 3 -.-.-.;.K.L.L.",
"n.B.m.v.........o = ; < h x x x @ + + + ; ; ; ; : ; - : z c c c j ; ; %   L.K.K.K.B.B.n.a.....) / 5 9 6 0 y y 0 e ) ( ( ) x.x.x.",
"M.n.n.c.L T T T E E W W 5 p a p B.G.D.D.:.<.>.:.I ^ [ W w z c k S W } } E Z.C.C.M.B.m.b.u.U U U K 4 5 0 0 B B B x z h g q -.=.=.",
"b.v.v.c.P T T E E E E R 2 p p 6 m.S.S.S.-.-.-.-.P W W E w z c z S W W W Y C.M.M.B.m.m.c.e.T T T K 4 5 0 0 B B B c x c z w -.=.=.",
"c.c.c.d.K T T E T E E E ; 5 6 5 n.S.Z.B.&.=.-.=.K Y E E w k c k S Y Y E Y b.v.v.b.b.b.c.w.I U U P 5 e 6 0 B B B B B B z u &.$.#.",
"5.5.5.5.N A H K H H K L O - ; = M.B.v.c.X.X.X.X.N P P P t b m k V L K K A q.7.7.u.d.k.a.6.A H H K 5 6 e e B c V B B c c z / ~ ~ ",
"T T I I , 6 p p 4 4 2 , W { { { :.=.-.=.P T E T % 6 6 p d d d d p 4 4 1 O R T T E =.=.#.( 5 r p f e 6 6 e y y y y B B c x 5 4 , ",
"E R R T 4 p p a 6 5 5 2 { { { { -.-.-.=.P E E E ; e p p p d d d p 5 5 2 O E E E E =.=.#.) 6 p d a 6 6 6 6 y y y y B B B B 5 5 5 ",
"E E E T 5 p d d 9 5 5 4 W W W E -.=.*.$.P E E W = 5 p p p p p a p 5 5 4 = E E R E =.=.#.) p d d d e e 6 6 y y y y B B B B 5 5 5 ",
"U P P P p d d d 0 0 5 5 E T U P ..( / ( A I T E X ; < < 2 5 2 5 r 5 5 5 - P P P P o.o.X.( p d d v 6 6 6 5 y y y y B B B B e 6 6 ",
"5 4 4 5 5 5 6 6 B B B c a p p p 4 2 5 5 k k g u :.3.2.2.F.D.S.C.] z x x x 4 2 , O E E R L 4 6 6 5 e r r y d d d d B B B B y y y ",
"e 6 6 5 6 6 e 6 B B c c d p d f 5 5 5 5 x x x g -.:.>.>.F.S.Z.M.] k z x x 5 5 , * W E E I 4 5 e e y s r y d d d d B B B B y y y ",
"5 6 6 6 e e 5 6 x x z z p p p p 5 6 e 6 B c x z =.>.:.>.F.S.Z.M.` i z z z 4 2 , O E E E I 5 5 5 9 r 6 e y p a a d B B B B y y y ",
"e 6 6 e r 9 6 6 g u u t 4 4 5 2 5 5 9 0 c c k z =.3.2.2.D.Z.Z.B._ 3 q t t - - % . U I I U 5 0 0 5 3 1 1 3 5 < 5 0 x b c c r y y ",
"y y y y B c x k <.3.3.<.E { W W - 5 5 0 y y y 9 c.S.S.S.I.L.L.K.g.:.:.;.#.W { W U : 2 4 5 x c z t G.G.G.S.<.<.:.@.p d d d e 9 r ",
"y y y y B c z g <.2.<.:.E W W W - 4 5 5 y y y 9 c.Z.Z.C.L.L.L.J.g.-.-.-.O.E E E P 4 5 5 5 c x k w G.D.D.Z.:.-.-.O.6 a d d 6 e 6 ",
"y y y r c z z i :.3.<.:.E W W W = 2 4 5 y r y 9 j.M.n.n.J.K.J.J.i.*.=.&.o.E E E P 4 5 0 5 z k g q D.D.S.Z.:.-.-.o.5 p a d e 6 6 ",
"y y r y g w w 7 3.3.3.<.W W } W o = - , e y y r a.w.q.w.z.H.H.x.0.o.+.o.) P I I L 5 5 5 4 t t q > S.S.S.Z.-.-.-.O.; < 5 6 5 6 9 ",
"c V c z <.3.3.3.T.Y.Y.L.Z.S.S.S.Z.Z.S.B.: 5 5 5 c k g u @.=.*.$.^ I U T H 5 6 p d r y r 3 <.<.2.<.L.L.K.J.M.M.n.p.E R E T 5 6 6 ",
"B B c k <.<.<.<.I.L.L.L.M.Z.Z.M.B.M.n.c.- 5 5 0 c c k g @.=.*.%.^ U T T L 0 s d a y y e 1 ;.:.;.;.L.J.J.H.n.v.c.p.T E E U 2 5 6 ",
"B B x z -.-.;.-.L.L.L.K.m.m.m.m.b.b.v.j.- 4 5 6 c c B k @.*.#.@.^ U T U L p d d d y y r < -.=.&.=.H.H.H.x.j.d.d.e.I T E U 5 9 6 ",
"c c x z *.$.$.*.J.L.K.J.v.v.c.c.p.e.e.e.- 5 6 6 B B B x o.) ) ) J K L L L a d d a y y t 3 X...| ..l.l.l.8.4.4.4.4.A L P P 5 9 6 ",
"c c c h E E E E b.B.M.n.&.*.&.#.L P U P 5 p d d 0 0 5 5 r w 4 4 4 4 2 5 5 e e 6 e c M c x s 6 5 - U P P K 2 6 r p 4 2 5 5 y y y ",
"B B c z E W { E M.B.M.m.&.*.&.#.L T T T 2 p d d 0 6 9 5 r r e e r 5 5 5 6 6 6 6 0 c c c b d d r 2 E T T P 6 p d a 5 5 6 6 y y y ",
"B B x z { E E E M.M.M.v.$.$.$.#.K U T Y 2 a d d 5 5 5 5 9 9 e e e 9 5 e e 6 e 6 y c c c c f d p 5 E E E U p d d d 6 e 6 e y y y ",
"B B c z T T T R v.n.v.c.O.O.o.X.Z P P I 5 s d d 5 < , 1 1 3 3 4 5 6 6 5 6 6 e 6 6 m c c m d d a 5 U U U P p d d d 6 e 6 6 y y y ",
"B B B c r 3 3 : =.=.=.$.P I T P = 5 6 p 0 r r 9 v.G.G.D.,.<.<.-.! p a v d y y y y y y y y e 6 5 5 < 2 2 5 5 6 6 6 s y y y B B B ",
"c B c x r e 5 2 =.-.=.&.P T T T < p a s y y r 8 v.D.S.S.=.-.-.=.G p a d d y y y y y y y y e 5 5 5 5 5 5 5 5 e 5 6 y y y y B B B ",
"c x x z e 9 9 1 =.=.$.@.L I T U 2 p d d r 9 w 4 c.S.Z.B.$.-.=.&.G 6 p a d y y y y y y y y 9 5 5 5 2 5 5 5 5 5 5 5 y y y y B B B "
};
